# xmcd
#
# Track frame offsets:
#	150
#	16300
#	33100
#	51475
#	65925
#	80850
#	94925
#	109225
#	123165
#	136050
#	152875
#	169387
#	184500
#	201525
#	218125
#	232950
#	250687
#	267300
#	280800
#	291925
#	309725
#
# Disc length: 4293 seconds
#
# Revision: 0
# Processed by: cddbd v1.5.2PL0 Copyright (c) Steve Scherf et al.
# Submitted via: EasyCDDAExtractor 11.9.9.666
#
DISCID=3f10c315
DTITLE=张明敏 - 张明敏纪念金唱片
DYEAR=1900
DGENRE=Pop
TTITLE0=梦驼铃
TTITLE1=一剪梅
TTITLE2=我是中国人
TTITLE3=我的中国心
TTITLE4=龙的传人
TTITLE5=中华民族
TTITLE6=长城谣
TTITLE7=故乡的风
TTITLE8=毕业生
TTITLE9=难寻旧时梦
TTITLE10=三月里的小雨
TTITLE11=爸爸的草鞋
TTITLE12=一个陌生的女孩
TTITLE13=山南北走一回
TTITLE14=南屏晚钟
TTITLE15=浪迹天涯
TTITLE16=乡间小路
TTITLE17=问白云
TTITLE18=龙船调
TTITLE19=黄河愿
TTITLE20=故乡
EXTD=
EXTT0=
EXTT1=
EXTT2=
EXTT3=
EXTT4=
EXTT5=
EXTT6=
EXTT7=
EXTT8=
EXTT9=
EXTT10=
EXTT11=
EXTT12=
EXTT13=
EXTT14=
EXTT15=
EXTT16=
EXTT17=
EXTT18=
EXTT19=
EXTT20=
PLAYORDER=
